<?xml version="1.0" encoding="utf-8"?>
<!-- Generator: Adobe Illustrator 22.1.0, SVG Export Plug-In . SVG Version: 6.00 Build 0)  -->
<svg version="1.1" id="Capa_2" xmlns="http://www.w3.org/2000/svg" xmlns:xlink="http://www.w3.org/1999/xlink" x="0px" y="0px"
	 viewBox="0 0 640 480" style="enable-background:new 0 0 640 480;" xml:space="preserve">
<style type="text/css">
	.st0{fill:none;stroke:#C1272D;stroke-miterlimit:10;}
	.st1{fill:none;stroke:#0000FF;stroke-miterlimit:10;}
	.st2{fill:#C1272D;}
	.st3{fill:#0000FF;}
</style>
<g>
	<path class="st0" d="M175,211.8c0,0,35.6-22.8,61.4-50.6s40.4-45.7,40.4-45.7s25.9-40.8,76-21.2c0,0,24.2,16.3,74.4,3.3
		c0,0,45.3-8.2,51.7,50.6c0,0-4.8,55.5,19.4,86.5l3.2,4.9v16.3c0,0-29.1,31-40.4,101.1c0,0-11.3-40.8-24.2-58.7
		c0,0,19.4-52.2,25.9-53.8c0,0-25.9-27.7-25.9-60.4c0,0-1.6-27.7-43.6-26.1c0,0-3.2,3.3-51.7,0c0,0-24.2-3.3-59.8,34.3
		s-67.9,44-67.9,44l-12.9,1.6l16.2,1.6c0,0,21,21.2,29.1,47.3c0,0,9.7,24.5,33.9,40.8c0,0,12.9,21.2,12.9,73.4
		c0,0-38.8-9.8-64.7-47.3c0,0-38.8-76.7-46.9-101.1l-9.7-16.3C171.8,236.2,170.1,215,175,211.8z"/>
	<path class="st1" d="M179.2,206.7c0,0,34.5-21.9,59.6-48.5s39.2-43.8,39.2-43.8s25.1-39.1,73.7-20.3c0,0,23.5,15.6,72.1,3.1
		c0,0,43.9-7.8,50.2,48.5c0,0-4.7,53.2,18.8,82.9l3.1,4.7v15.6c0,0-28.2,29.7-39.2,97c0,0-11-39.1-23.5-56.3c0,0,18.8-50,25.1-51.6
		c0,0-25.1-26.6-25.1-57.9c0,0-1.6-26.6-42.3-25c0,0-3.1,3.1-50.2,0c0,0-23.5-3.1-58,32.8s-65.8,42.2-65.8,42.2l-12.5,1.6l15.7,1.6
		c0,0,20.4,20.3,28.2,45.4c0,0,9.4,23.5,32.9,39.1c0,0,12.5,20.3,12.5,70.4c0,0-37.6-9.4-62.7-45.4c0,0-37.6-73.5-45.5-97l-9.4-15.6
		C176,230.2,174.5,209.8,179.2,206.7z"/>
	<path class="st0" d="M428.1,282.5c0,0-29-45.1-72.6-30.6c0,0-16.1,0-22.6,6.4c0,0-45.1-22.6-79-4.8s24.2,64.5,24.2,64.5
		s8.1,74.2,16.1,85.5S412,509.8,455.5,377.6C455.5,377.6,465.2,316.4,428.1,282.5z"/>
	<g>
		<g>
			<path class="st2" d="M333.5,260.9c5-0.4,7.1,6.1,9.7,9.4c2.1,2.7,4.6,4.9,7.4,6.9c1.6,1.1,3.1-1.5,1.5-2.6
				c-4.6-3.2-7.3-7.3-10.3-11.8c-2-2.9-4.6-5.1-8.3-4.8C331.6,258.1,331.6,261.1,333.5,260.9L333.5,260.9z"/>
		</g>
	</g>
	<g>
		<g>
			<path class="st2" d="M365.5,292c18.4,28,28.3,60.7,28.6,94.2c0,1.9,3,1.9,3,0c-0.3-34-10.4-67.3-29-95.7
				C367.1,288.9,364.5,290.4,365.5,292L365.5,292z"/>
		</g>
	</g>
	<path class="st1" d="M431.4,279.3c0,0-29-45.1-72.6-30.6c0,0-16.1,0-22.6,6.4c0,0-45.1-22.6-79-4.8s24.2,64.5,24.2,64.5
		s8.1,74.2,16.1,85.5s117.7,106.4,161.2-25.8C458.8,374.4,468.4,313.1,431.4,279.3z"/>
	<g>
		<g>
			<path class="st3" d="M336.8,257.7c5-0.4,7.1,6.1,9.7,9.4c2.1,2.7,4.6,4.9,7.4,6.9c1.6,1.1,3.1-1.5,1.5-2.6
				c-4.6-3.2-7.3-7.3-10.3-11.8c-2-2.9-4.6-5.1-8.3-4.8C334.8,254.8,334.8,257.8,336.8,257.7L336.8,257.7z"/>
		</g>
	</g>
	<g>
		<g>
			<path class="st3" d="M368.8,288.8c18.4,28,28.3,60.7,28.6,94.2c0,1.9,3,1.9,3,0c-0.3-34-10.4-67.3-29-95.7
				C370.3,285.7,367.7,287.2,368.8,288.8L368.8,288.8z"/>
		</g>
	</g>
	<g>
		<g>
			<path class="st3" d="M282.8,196.3c6.7-2.4,14.2,0.1,19.2-6.1c3.5-4.4,4-10.2,1.4-15.1c-0.8,0.6-1.6,1.2-2.4,1.8
				c2.6,3.2,0.6,8,1.8,11.7c0.8,2.5,2.5,3.8,4.9,4.6c8.7,3,19.7,2.6,28.6,1.1c7.1-1.1,14.6-3.7,19.2-9.5c5.3-6.7,4.9-15.5,4.2-23.5
				c-1,0-2,0-3,0c0.5,5.4,1,10.8,1.5,16.3c0.3,2.9-0.2,7.8,1.7,10.2c2,2.5,6.6,2.6,9.5,3.1c4.8,0.9,9.6,1.5,14.5,1.4
				c7.6-0.2,15.4-2.5,20.8-8.1c5.7-5.9,7.6-14.4,8.9-22.2c-1-0.1-2-0.3-2.9-0.4c0.1,4.4,0.2,8.8,0.3,13.2c0.1,2.8-0.7,6.9,1.1,9.3
				c1.3,1.7,3.1,1.7,5.2,1.8c4.7,0.1,9.4,0,14.1,0c1.9,0,1.9-3,0-3c-2.8,0-5.6,0-8.5,0c-3.7,0-7.7,1.2-8.8-3.3
				c-0.6-2.5-0.1-5.9-0.2-8.5c-0.1-3.1-0.1-6.3-0.2-9.4c0-1.6-2.7-2.1-2.9-0.4c-1.1,6.5-2.4,13.2-6.3,18.6c-4.6,6.3-12.1,9-19.6,9.5
				c-3.9,0.2-7.9-0.2-11.8-0.8c-2.5-0.4-7.5-0.4-9.5-1.8c-2.9-2-2.4-10.7-2.6-13.8c-0.3-3.8-0.7-7.7-1-11.5c-0.2-1.9-3.2-1.9-3,0
				c0.7,7.8,1.4,16.9-4.7,22.9c-5.1,5.1-12.6,6.8-19.5,7.6c-4,0.4-8,0.5-12.1,0.3c-3.5-0.2-8.7-0.2-11.9-1.8
				c-5.6-2.8-1.8-10.9-5.4-15.5c-1.1-1.4-3.1,0.4-2.4,1.8c2.5,4.7,1.1,11-3.6,13.9c-4.4,2.7-10.4,1.2-15.3,2.9
				C280.2,194,281,196.9,282.8,196.3L282.8,196.3z"/>
		</g>
	</g>
</g>
<g>
	<path class="st0" d="M175,204.8c0,0,35.6-22.8,61.4-50.6s40.4-45.7,40.4-45.7s25.9-40.8,76-21.2c0,0,24.2,16.3,74.4,3.3
		c0,0,45.3-8.2,51.7,50.6c0,0-4.8,55.5,19.4,86.5l3.2,4.9v16.3c0,0-29.1,31-40.4,101.1c0,0-11.3-40.8-24.2-58.7
		c0,0,19.4-52.2,25.9-53.8c0,0-25.9-27.7-25.9-60.4c0,0-1.6-27.7-43.6-26.1c0,0-3.2,3.3-51.7,0c0,0-24.2-3.3-59.8,34.3
		s-67.9,44-67.9,44l-12.9,1.6l16.2,1.6c0,0,21,21.2,29.1,47.3c0,0,9.7,24.5,33.9,40.8c0,0,12.9,21.2,12.9,73.4
		c0,0-38.8-9.8-64.7-47.3c0,0-38.8-76.7-46.9-101.1l-9.7-16.3C171.8,229.2,170.1,208,175,204.8z"/>
	<path class="st1" d="M179.2,199.7c0,0,34.5-21.9,59.6-48.5s39.2-43.8,39.2-43.8s25.1-39.1,73.7-20.3c0,0,23.5,15.6,72.1,3.1
		c0,0,43.9-7.8,50.2,48.5c0,0-4.7,53.2,18.8,82.9l3.1,4.7v15.6c0,0-28.2,29.7-39.2,97c0,0-11-39.1-23.5-56.3c0,0,18.8-50,25.1-51.6
		c0,0-25.1-26.6-25.1-57.9c0,0-1.6-26.6-42.3-25c0,0-3.1,3.1-50.2,0c0,0-23.5-3.1-58,32.8s-65.8,42.2-65.8,42.2l-12.5,1.6l15.7,1.6
		c0,0,20.4,20.3,28.2,45.4c0,0,9.4,23.5,32.9,39.1c0,0,12.5,20.3,12.5,70.4c0,0-37.6-9.4-62.7-45.4c0,0-37.6-73.5-45.5-97l-9.4-15.6
		C176,223.2,174.5,202.8,179.2,199.7z"/>
	<path class="st0" d="M428.1,275.5c0,0-29-45.1-72.6-30.6c0,0-16.1,0-22.6,6.4c0,0-45.1-22.6-79-4.8s24.2,64.5,24.2,64.5
		s8.1,74.2,16.1,85.5S412,502.8,455.5,370.6C455.5,370.6,465.2,309.4,428.1,275.5z"/>
	<g>
		<g>
			<path class="st2" d="M333.5,253.9c5-0.4,7.1,6.1,9.7,9.4c2.1,2.7,4.6,4.9,7.4,6.9c1.6,1.1,3.1-1.5,1.5-2.6
				c-4.6-3.2-7.3-7.3-10.3-11.8c-2-2.9-4.6-5.1-8.3-4.8C331.6,251.1,331.6,254.1,333.5,253.9L333.5,253.9z"/>
		</g>
	</g>
	<g>
		<g>
			<path class="st2" d="M365.5,285c18.4,28,28.3,60.7,28.6,94.2c0,1.9,3,1.9,3,0c-0.3-34-10.4-67.3-29-95.7
				C367.1,281.9,364.5,283.4,365.5,285L365.5,285z"/>
		</g>
	</g>
	<path class="st1" d="M431.4,272.3c0,0-29-45.1-72.6-30.6c0,0-16.1,0-22.6,6.4c0,0-45.1-22.6-79-4.8s24.2,64.5,24.2,64.5
		s8.1,74.2,16.1,85.5s117.7,106.4,161.2-25.8C458.8,367.4,468.4,306.1,431.4,272.3z"/>
	<g>
		<g>
			<path class="st3" d="M336.8,250.7c5-0.4,7.1,6.1,9.7,9.4c2.1,2.7,4.6,4.9,7.4,6.9c1.6,1.1,3.1-1.5,1.5-2.6
				c-4.6-3.2-7.3-7.3-10.3-11.8c-2-2.9-4.6-5.1-8.3-4.8C334.8,247.8,334.8,250.8,336.8,250.7L336.8,250.7z"/>
		</g>
	</g>
	<g>
		<g>
			<path class="st3" d="M368.8,281.8c18.4,28,28.3,60.7,28.6,94.2c0,1.9,3,1.9,3,0c-0.3-34-10.4-67.3-29-95.7
				C370.3,278.7,367.7,280.2,368.8,281.8L368.8,281.8z"/>
		</g>
	</g>
	<g>
		<g>
			<path class="st3" d="M282.8,189.3c6.7-2.4,14.2,0.1,19.2-6.1c3.5-4.4,4-10.2,1.4-15.1c-0.8,0.6-1.6,1.2-2.4,1.8
				c2.6,3.2,0.6,8,1.8,11.7c0.8,2.5,2.5,3.8,4.9,4.6c8.7,3,19.7,2.6,28.6,1.1c7.1-1.1,14.6-3.7,19.2-9.5c5.3-6.7,4.9-15.5,4.2-23.5
				c-1,0-2,0-3,0c0.5,5.4,1,10.8,1.5,16.3c0.3,2.9-0.2,7.8,1.7,10.2c2,2.5,6.6,2.6,9.5,3.1c4.8,0.9,9.6,1.5,14.5,1.4
				c7.6-0.2,15.4-2.5,20.8-8.1c5.7-5.9,7.6-14.4,8.9-22.2c-1-0.1-2-0.3-2.9-0.4c0.1,4.4,0.2,8.8,0.3,13.2c0.1,2.8-0.7,6.9,1.1,9.3
				c1.3,1.7,3.1,1.7,5.2,1.8c4.7,0.1,9.4,0,14.1,0c1.9,0,1.9-3,0-3c-2.8,0-5.6,0-8.5,0c-3.7,0-7.7,1.2-8.8-3.3
				c-0.6-2.5-0.1-5.9-0.2-8.5c-0.1-3.1-0.1-6.3-0.2-9.4c0-1.6-2.7-2.1-2.9-0.4c-1.1,6.5-2.4,13.2-6.3,18.6c-4.6,6.3-12.1,9-19.6,9.5
				c-3.9,0.2-7.9-0.2-11.8-0.8c-2.5-0.4-7.5-0.4-9.5-1.8c-2.9-2-2.4-10.7-2.6-13.8c-0.3-3.8-0.7-7.7-1-11.5c-0.2-1.9-3.2-1.9-3,0
				c0.7,7.8,1.4,16.9-4.7,22.9c-5.1,5.1-12.6,6.8-19.5,7.6c-4,0.4-8,0.5-12.1,0.3c-3.5-0.2-8.7-0.2-11.9-1.8
				c-5.6-2.8-1.8-10.9-5.4-15.5c-1.1-1.4-3.1,0.4-2.4,1.8c2.5,4.7,1.1,11-3.6,13.9c-4.4,2.7-10.4,1.2-15.3,2.9
				C280.2,187,281,189.9,282.8,189.3L282.8,189.3z"/>
		</g>
	</g>
</g>
<g>
	<path class="st0" d="M184,203.8c0,0,35.6-22.8,61.4-50.6s40.4-45.7,40.4-45.7s25.9-40.8,76-21.2c0,0,24.2,16.3,74.4,3.3
		c0,0,45.3-8.2,51.7,50.6c0,0-4.8,55.5,19.4,86.5l3.2,4.9v16.3c0,0-29.1,31-40.4,101.1c0,0-11.3-40.8-24.2-58.7
		c0,0,19.4-52.2,25.9-53.8c0,0-25.9-27.7-25.9-60.4c0,0-1.6-27.7-43.6-26.1c0,0-3.2,3.3-51.7,0c0,0-24.2-3.3-59.8,34.3
		s-67.9,44-67.9,44l-12.9,1.6l16.2,1.6c0,0,21,21.2,29.1,47.3c0,0,9.7,24.5,33.9,40.8c0,0,12.9,21.2,12.9,73.4
		c0,0-38.8-9.8-64.7-47.3c0,0-38.8-76.7-46.9-101.1l-9.7-16.3C180.8,228.2,179.1,207,184,203.8z"/>
	<path class="st1" d="M188.2,198.7c0,0,34.5-21.9,59.6-48.5s39.2-43.8,39.2-43.8s25.1-39.1,73.7-20.3c0,0,23.5,15.6,72.1,3.1
		c0,0,43.9-7.8,50.2,48.5c0,0-4.7,53.2,18.8,82.9l3.1,4.7v15.6c0,0-28.2,29.7-39.2,97c0,0-11-39.1-23.5-56.3c0,0,18.8-50,25.1-51.6
		c0,0-25.1-26.6-25.1-57.9c0,0-1.6-26.6-42.3-25c0,0-3.1,3.1-50.2,0c0,0-23.5-3.1-58,32.8s-65.8,42.2-65.8,42.2l-12.5,1.6l15.7,1.6
		c0,0,20.4,20.3,28.2,45.4c0,0,9.4,23.5,32.9,39.1c0,0,12.5,20.3,12.5,70.4c0,0-37.6-9.4-62.7-45.4c0,0-37.6-73.5-45.5-97l-9.4-15.6
		C185,222.2,183.5,201.8,188.2,198.7z"/>
	<path class="st0" d="M437.1,274.5c0,0-29-45.1-72.6-30.6c0,0-16.1,0-22.6,6.4c0,0-45.1-22.6-79-4.8s24.2,64.5,24.2,64.5
		s8.1,74.2,16.1,85.5S421,501.8,464.5,369.6C464.5,369.6,474.2,308.4,437.1,274.5z"/>
	<g>
		<g>
			<path class="st2" d="M342.5,252.9c5-0.4,7.1,6.1,9.7,9.4c2.1,2.7,4.6,4.9,7.4,6.9c1.6,1.1,3.1-1.5,1.5-2.6
				c-4.6-3.2-7.3-7.3-10.3-11.8c-2-2.9-4.6-5.1-8.3-4.8C340.6,250.1,340.6,253.1,342.5,252.9L342.5,252.9z"/>
		</g>
	</g>
	<g>
		<g>
			<path class="st2" d="M374.5,284c18.4,28,28.3,60.7,28.6,94.2c0,1.9,3,1.9,3,0c-0.3-34-10.4-67.3-29-95.7
				C376.1,280.9,373.5,282.4,374.5,284L374.5,284z"/>
		</g>
	</g>
	<path class="st1" d="M440.4,271.3c0,0-29-45.1-72.6-30.6c0,0-16.1,0-22.6,6.4c0,0-45.1-22.6-79-4.8s24.2,64.5,24.2,64.5
		s8.1,74.2,16.1,85.5s117.7,106.4,161.2-25.8C467.8,366.4,477.4,305.1,440.4,271.3z"/>
	<g>
		<g>
			<path class="st3" d="M345.8,249.7c5-0.4,7.1,6.1,9.7,9.4c2.1,2.7,4.6,4.9,7.4,6.9c1.6,1.1,3.1-1.5,1.5-2.6
				c-4.6-3.2-7.3-7.3-10.3-11.8c-2-2.9-4.6-5.1-8.3-4.8C343.8,246.8,343.8,249.8,345.8,249.7L345.8,249.7z"/>
		</g>
	</g>
	<g>
		<g>
			<path class="st3" d="M377.8,280.8c18.4,28,28.3,60.7,28.6,94.2c0,1.9,3,1.9,3,0c-0.3-34-10.4-67.3-29-95.7
				C379.3,277.7,376.7,279.2,377.8,280.8L377.8,280.8z"/>
		</g>
	</g>
	<g>
		<g>
			<path class="st3" d="M291.8,188.3c6.7-2.4,14.2,0.1,19.2-6.1c3.5-4.4,4-10.2,1.4-15.1c-0.8,0.6-1.6,1.2-2.4,1.8
				c2.6,3.2,0.6,8,1.8,11.7c0.8,2.5,2.5,3.8,4.9,4.6c8.7,3,19.7,2.6,28.6,1.1c7.1-1.1,14.6-3.7,19.2-9.5c5.3-6.7,4.9-15.5,4.2-23.5
				c-1,0-2,0-3,0c0.5,5.4,1,10.8,1.5,16.3c0.3,2.9-0.2,7.8,1.7,10.2c2,2.5,6.6,2.6,9.5,3.1c4.8,0.9,9.6,1.5,14.5,1.4
				c7.6-0.2,15.4-2.5,20.8-8.1c5.7-5.9,7.6-14.4,8.9-22.2c-1-0.1-2-0.3-2.9-0.4c0.1,4.4,0.2,8.8,0.3,13.2c0.1,2.8-0.7,6.9,1.1,9.3
				c1.3,1.7,3.1,1.7,5.2,1.8c4.7,0.1,9.4,0,14.1,0c1.9,0,1.9-3,0-3c-2.8,0-5.6,0-8.5,0c-3.7,0-7.7,1.2-8.8-3.3
				c-0.6-2.5-0.1-5.9-0.2-8.5c-0.1-3.1-0.1-6.3-0.2-9.4c0-1.6-2.7-2.1-2.9-0.4c-1.1,6.5-2.4,13.2-6.3,18.6c-4.6,6.3-12.1,9-19.6,9.5
				c-3.9,0.2-7.9-0.2-11.8-0.8c-2.5-0.4-7.5-0.4-9.5-1.8c-2.9-2-2.4-10.7-2.6-13.8c-0.3-3.8-0.7-7.7-1-11.5c-0.2-1.9-3.2-1.9-3,0
				c0.7,7.8,1.4,16.9-4.7,22.9c-5.1,5.1-12.6,6.8-19.5,7.6c-4,0.4-8,0.5-12.1,0.3c-3.5-0.2-8.7-0.2-11.9-1.8
				c-5.6-2.8-1.8-10.9-5.4-15.5c-1.1-1.4-3.1,0.4-2.4,1.8c2.5,4.7,1.1,11-3.6,13.9c-4.4,2.7-10.4,1.2-15.3,2.9
				C289.2,186,290,188.9,291.8,188.3L291.8,188.3z"/>
		</g>
	</g>
</g>
</svg>
