<?xml version="1.0" encoding="utf-8"?>
<!-- Generator: Adobe Illustrator 22.0.1, SVG Export Plug-In . SVG Version: 6.00 Build 0)  -->
<svg version="1.1" id="Capa_1" xmlns="http://www.w3.org/2000/svg" xmlns:xlink="http://www.w3.org/1999/xlink" x="0px" y="0px"
	 viewBox="0 0 612 792" style="enable-background:new 0 0 612 792;" xml:space="preserve">
<style type="text/css">
	.st0{fill:none;stroke:#3C60AA;stroke-width:5;stroke-miterlimit:10;}
	.st1{fill:none;stroke:#E62C35;stroke-width:4;stroke-miterlimit:10;}
	.st2{fill:none;stroke:#140805;stroke-width:3;stroke-miterlimit:10;}
</style>
<polygon class="st0" points="417.5,548.8 294.8,486.4 173.9,552 195.4,416.1 95.6,321.4 231.5,299.8 290.7,175.6 353.2,298.2 
	489.7,316.2 392.4,413.5 "/>
<polygon class="st1" points="371.7,481 294,441.5 217.4,483.1 231,397 167.8,336.9 253.9,323.3 291.4,244.6 331,322.3 417.4,333.6 
	355.8,395.3 "/>
<polygon class="st2" points="346.8,444.1 293.6,417 241.1,445.5 250.4,386.5 207.1,345.4 266.1,336 291.8,282.2 318.9,335.3 
	378.1,343.1 335.9,385.4 "/>
</svg>
